# xmcd
#
# Track frame offsets: 
#        150
#        14665
#        29497
#        45072
#        62842
#        79125
#        95097
#        113490
#        124100
#        138840
#        155677
#        175842
#        195532
#        211990
#
# Disc length: 3081 seconds
#
# Revision: 8
# Processed by: cddbd v1.5.2PL0 Copyright (c) Steve Scherf et al.
# Submitted via: ExactAudioCopyFreeDBPlugin 1.0
#
DISCID=b80c070e
DTITLE=Rednex - Sex and Violins
DYEAR=1994
DGENRE=Euro-Techno
TTITLE0=Cotton-Eye Joe
TTITLE1=Hittin' The Hay
TTITLE2=Riding Alone
TTITLE3=Wish You Were Here
TTITLE4=Mary Lou
TTITLE5=Old Pop In An Oak
TTITLE6=Nowhere In Idaho
TTITLE7=The Sad But True Story Of Ray Mingus The Lumberjack Of Bulk Ro
TTITLE7=ck City...
TTITLE8=Fat Sally Lee
TTITLE9=Shooter
TTITLE10=McKenzie Brothers
TTITLE11=Rolling Home
TTITLE12=Wild And Free
TTITLE13=Cotton-Eye Joe (Slide To The Side Mix)
EXTD=YEAR: 1994 ID3G: 2
EXTT0=
EXTT1=
EXTT2=
EXTT3=
EXTT4=
EXTT5=
EXTT6=
EXTT7=
EXTT8=
EXTT9=
EXTT10=
EXTT11=
EXTT12=
EXTT13=
PLAYORDER=
